<?xml version="1.0" encoding="UTF-8"?>
<!DOCTYPE svg PUBLIC "-//W3C//DTD SVG 1.1//EN" "http://www.w3.org/Graphics/SVG/1.1/DTD/svg11.dtd">
<svg xmlns="http://www.w3.org/2000/svg" version="1.1" width="2143px" height="2143px" style="shape-rendering:geometricPrecision; text-rendering:geometricPrecision; image-rendering:optimizeQuality; fill-rule:evenodd; clip-rule:evenodd" xmlns:xlink="http://www.w3.org/1999/xlink">
<g><path style="opacity:1" fill="#1877f2" d="M 1237.5,2125.5 C 1238.5,1876.9 1238.83,1628.24 1238.5,1379.5C 1321.17,1379.5 1403.83,1379.5 1486.5,1379.5C 1502.38,1276.87 1518.05,1174.2 1533.5,1071.5C 1435.33,1070.5 1337,1070.17 1238.5,1070.5C 1238.5,1000.5 1238.5,930.5 1238.5,860.5C 1238.78,817.972 1252.95,780.972 1281,749.5C 1310.3,723.112 1344.8,708.612 1384.5,706C 1438.48,704.563 1492.48,704.063 1546.5,704.5C 1546.5,616.833 1546.5,529.167 1546.5,441.5C 1467.82,429.12 1388.65,422.12 1309,420.5C 1240.62,419.755 1175.12,432.921 1112.5,460C 1023.86,502.642 963.363,570.475 931,663.5C 915.65,709.601 906.983,756.934 905,805.5C 904.5,893.833 904.333,982.166 904.5,1070.5C 814.167,1070.5 723.833,1070.5 633.5,1070.5C 633.5,1173.5 633.5,1276.5 633.5,1379.5C 723.833,1379.5 814.167,1379.5 904.5,1379.5C 904.5,1628.17 904.5,1876.83 904.5,2125.5C 682.67,2088.42 491.003,1992.75 329.5,1838.5C 149.168,1661.49 43.0012,1446.83 11,1194.5C -17.4554,919.325 47.8779,669.325 207,444.5C 361.703,235.645 565.537,98.8114 818.5,34C 1033.91,-16.4838 1245.24,-3.15048 1452.5,74C 1699.51,172.02 1886.68,337.52 2014,570.5C 2123.83,781.66 2160.83,1004.99 2125,1240.5C 2080.68,1497.73 1960.85,1711.56 1765.5,1882C 1612.79,2011.82 1436.79,2092.99 1237.5,2125.5 Z"/></g>
<g><path style="opacity:1" fill="#fefefe" d="M 1238.5,860.5 C 1237.5,930.665 1237.17,1001 1237.5,1071.5C 1336.17,1071.5 1434.83,1071.5 1533.5,1071.5C 1518.05,1174.2 1502.38,1276.87 1486.5,1379.5C 1403.83,1379.5 1321.17,1379.5 1238.5,1379.5C 1238.83,1628.24 1238.5,1876.9 1237.5,2125.5C 1126.34,2142.82 1015.34,2142.82 904.5,2125.5C 904.5,1876.83 904.5,1628.17 904.5,1379.5C 814.167,1379.5 723.833,1379.5 633.5,1379.5C 633.5,1276.5 633.5,1173.5 633.5,1070.5C 723.833,1070.5 814.167,1070.5 904.5,1070.5C 904.333,982.166 904.5,893.833 905,805.5C 906.983,756.934 915.65,709.601 931,663.5C 963.363,570.475 1023.86,502.642 1112.5,460C 1175.12,432.921 1240.62,419.755 1309,420.5C 1388.65,422.12 1467.82,429.12 1546.5,441.5C 1546.5,529.167 1546.5,616.833 1546.5,704.5C 1492.48,704.063 1438.48,704.563 1384.5,706C 1344.8,708.612 1310.3,723.112 1281,749.5C 1252.95,780.972 1238.78,817.972 1238.5,860.5 Z"/></g>
<g><path style="opacity:0.867" fill="#add0fa" d="M 1238.5,860.5 C 1238.5,930.5 1238.5,1000.5 1238.5,1070.5C 1337,1070.17 1435.33,1070.5 1533.5,1071.5C 1434.83,1071.5 1336.17,1071.5 1237.5,1071.5C 1237.17,1001 1237.5,930.665 1238.5,860.5 Z"/></g>
</svg>
